<svg xmlns="http://www.w3.org/2000/svg" version="1.1" xmlns:xlink="http://www.w3.org/1999/xlink" xmlns:svgjs="http://svgjs.com/svgjs" width="1440" height="560" preserveAspectRatio="none" viewBox="0 0 1440 560">
    <g mask="url(&quot;#SvgjsMask1000&quot;)" fill="none">
        <path d="M328.69 302.35L328.69 306.07L341.8 306.07L341.8 302.35zM335.2 304.21 a6.6 6.6 0 1 0 13.2 0 a6.6 6.6 0 1 0 -13.2 0zM323.98 329.72L322.56 333.17L331.21 336.75L332.64 333.31zM325.33 335.03 a6.6 6.6 0 1 0 13.2 0 a6.6 6.6 0 1 0 -13.2 0zM309.16 353.22L306.53 355.85L317.49 366.82L320.13 364.18zM312.21 365.5 a6.6 6.6 0 1 0 13.2 0 a6.6 6.6 0 1 0 -13.2 0zM286.48 369.25L283.03 370.67L290.16 387.88L293.6 386.45zM285.28 387.16 a6.6 6.6 0 1 0 13.2 0 a6.6 6.6 0 1 0 -13.2 0zM259.38 375.38L255.66 375.38L255.66 405.07L259.38 405.07zM250.92 405.07 a6.6 6.6 0 1 0 13.2 0 a6.6 6.6 0 1 0 -13.2 0zM232.01 370.67L228.56 369.25L220.29 389.21L223.74 390.64zM215.41 389.93 a6.6 6.6 0 1 0 13.2 0 a6.6 6.6 0 1 0 -13.2 0zM208.51 355.85L205.88 353.22L192.68 366.42L195.31 369.05zM187.39 367.73 a6.6 6.6 0 1 0 13.2 0 a6.6 6.6 0 1 0 -13.2 0zM192.48 333.17L191.05 329.72L178.29 335.01L179.71 338.45zM172.4 336.73 a6.6 6.6 0 1 0 13.2 0 a6.6 6.6 0 1 0 -13.2 0zM186.35 306.07L186.35 302.35L158.77 302.35L158.77 306.07zM152.17 304.21 a6.6 6.6 0 1 0 13.2 0 a6.6 6.6 0 1 0 -13.2 0zM191.05 278.7L192.48 275.25L162.99 263.04L161.56 266.48zM155.68 264.76 a6.6 6.6 0 1 0 13.2 0 a6.6 6.6 0 1 0 -13.2 0zM205.88 255.2L208.51 252.57L201.04 245.09L198.4 247.73zM193.12 246.41 a6.6 6.6 0 1 0 13.2 0 a6.6 6.6 0 1 0 -13.2 0zM228.56 239.17L232.01 237.74L220.23 209.31L216.78 210.73zM211.91 210.02 a6.6 6.6 0 1 0 13.2 0 a6.6 6.6 0 1 0 -13.2 0zM255.66 233.04L259.38 233.04L259.38 201.6L255.66 201.6zM250.92 201.6 a6.6 6.6 0 1 0 13.2 0 a6.6 6.6 0 1 0 -13.2 0zM283.03 237.74L286.48 239.17L297.05 213.65L293.6 212.23zM288.72 212.94 a6.6 6.6 0 1 0 13.2 0 a6.6 6.6 0 1 0 -13.2 0zM306.53 252.57L309.16 255.2L329.32 235.04L326.69 232.41zM321.4 233.72 a6.6 6.6 0 1 0 13.2 0 a6.6 6.6 0 1 0 -13.2 0zM322.56 275.25L323.98 278.7L354.43 266.09L353 262.64zM347.11 264.36 a6.6 6.6 0 1 0 13.2 0 a6.6 6.6 0 1 0 -13.2 0zM186.33 304.21 a71.19 71.19 0 1 0 142.38 0 a71.19 71.19 0 1 0 -142.38 0z" fill="rgba(51, 104, 198, 0.37)"></path>
        <path d="M314.78 261.9 A70.1936 70.1936 0 0 1 265.68 374.93M265.68 374.93 A142.3872 142.3872 0 0 0 314.78 261.9" fill="rgba(41, 83, 158, 0.37)" fill-rule="nonzero"></path>
        <path d="M277.88 365.14 a4.98 4.98 0 1 0 9.96 0 a4.98 4.98 0 1 0 -9.96 0zM262.32 301.39 a14.24 14.24 0 1 0 28.48 0 a14.24 14.24 0 1 0 -28.48 0zM188.77 306.95 a14.24 14.24 0 1 0 28.48 0 a14.24 14.24 0 1 0 -28.48 0zM264.48 257.31 a14.24 14.24 0 1 0 28.48 0 a14.24 14.24 0 1 0 -28.48 0zM210.15 256.49 a9.97 9.97 0 1 0 19.94 0 a9.97 9.97 0 1 0 -19.94 0zM239.59 365.9 a8.54 8.54 0 1 0 17.08 0 a8.54 8.54 0 1 0 -17.08 0zM291.53 335.71 a13.53 13.53 0 1 0 27.06 0 a13.53 13.53 0 1 0 -27.06 0zM235.52 338.12 a5.7 5.7 0 1 0 11.4 0 a5.7 5.7 0 1 0 -11.4 0zM312.22 276.33 a4.98 4.98 0 1 0 9.96 0 a4.98 4.98 0 1 0 -9.96 0zM227.54 283.32 a4.98 4.98 0 1 0 9.96 0 a4.98 4.98 0 1 0 -9.96 0z" fill="rgba(41, 83, 158, 0.37)" fill-rule="nonzero"></path>
        <path d="M904.95 452.48L904.95 455.74L917.38 455.74L917.38 452.48zM911.6 454.11 a5.78 5.78 0 1 0 11.56 0 a5.78 5.78 0 1 0 -11.56 0zM900.83 476.44L899.58 479.45L917.05 486.68L918.29 483.67zM911.89 485.18 a5.78 5.78 0 1 0 11.56 0 a5.78 5.78 0 1 0 -11.56 0zM887.86 496.99L885.56 499.3L905.75 519.49L908.06 517.19zM901.12 518.34 a5.78 5.78 0 1 0 11.56 0 a5.78 5.78 0 1 0 -11.56 0zM868.01 511.02L865 512.27L876.56 540.19L879.58 538.94zM872.29 539.56 a5.78 5.78 0 1 0 11.56 0 a5.78 5.78 0 1 0 -11.56 0zM844.31 516.39L841.04 516.39L841.04 541.66L844.31 541.66zM836.9 541.66 a5.78 5.78 0 1 0 11.56 0 a5.78 5.78 0 1 0 -11.56 0zM820.35 512.27L817.34 511.02L805.69 539.15L808.7 540.4zM801.41 539.78 a5.78 5.78 0 1 0 11.56 0 a5.78 5.78 0 1 0 -11.56 0zM799.79 499.3L797.49 496.99L778.79 515.69L781.1 518zM774.17 516.84 a5.78 5.78 0 1 0 11.56 0 a5.78 5.78 0 1 0 -11.56 0zM785.77 479.45L784.52 476.44L773.67 480.93L774.92 483.94zM768.52 482.44 a5.78 5.78 0 1 0 11.56 0 a5.78 5.78 0 1 0 -11.56 0zM780.4 455.74L780.4 452.48L756.41 452.48L756.41 455.74zM750.63 454.11 a5.78 5.78 0 1 0 11.56 0 a5.78 5.78 0 1 0 -11.56 0zM784.52 431.79L785.77 428.77L770.17 422.32L768.92 425.33zM763.77 423.82 a5.78 5.78 0 1 0 11.56 0 a5.78 5.78 0 1 0 -11.56 0zM797.49 411.23L799.79 408.93L789.07 398.2L786.76 400.5zM782.13 399.35 a5.78 5.78 0 1 0 11.56 0 a5.78 5.78 0 1 0 -11.56 0zM817.34 397.2L820.35 395.96L817.09 388.07L814.07 389.32zM809.8 388.7 a5.78 5.78 0 1 0 11.56 0 a5.78 5.78 0 1 0 -11.56 0zM841.04 391.84L844.31 391.84L844.31 380.06L841.04 380.06zM836.9 380.06 a5.78 5.78 0 1 0 11.56 0 a5.78 5.78 0 1 0 -11.56 0zM865 395.96L868.01 397.2L878.35 372.25L875.34 371zM871.06 371.63 a5.78 5.78 0 1 0 11.56 0 a5.78 5.78 0 1 0 -11.56 0zM885.56 408.93L887.86 411.23L893.45 405.65L891.14 403.34zM886.52 404.49 a5.78 5.78 0 1 0 11.56 0 a5.78 5.78 0 1 0 -11.56 0zM899.58 428.77L900.83 431.79L924.97 421.79L923.73 418.78zM918.57 420.28 a5.78 5.78 0 1 0 11.56 0 a5.78 5.78 0 1 0 -11.56 0zM780.39 454.11 a62.29 62.29 0 1 0 124.58 0 a62.29 62.29 0 1 0 -124.58 0z" fill="rgba(51, 104, 198, 0.37)"></path>
        <path d="M784.01 433.16 A61.294399999999996 61.294399999999996 0 0 1 890.07 413.68M890.07 413.68 A124.58879999999999 124.58879999999999 0 0 0 784.01 433.16" fill="rgba(41, 83, 158, 0.37)" fill-rule="nonzero"></path>
        <path d="M869.75 503.58 a3.74 3.74 0 1 0 7.48 0 a3.74 3.74 0 1 0 -7.48 0zM807.56 499.09 a11.21 11.21 0 1 0 22.42 0 a11.21 11.21 0 1 0 -22.42 0zM827.38 456.38 a12.46 12.46 0 1 0 24.92 0 a12.46 12.46 0 1 0 -24.92 0zM787 429.13 a10.59 10.59 0 1 0 21.18 0 a10.59 10.59 0 1 0 -21.18 0zM785.04 475.51 a4.98 4.98 0 1 0 9.96 0 a4.98 4.98 0 1 0 -9.96 0zM843.55 411.41 a12.46 12.46 0 1 0 24.92 0 a12.46 12.46 0 1 0 -24.92 0zM809.01 404.6 a4.98 4.98 0 1 0 9.96 0 a4.98 4.98 0 1 0 -9.96 0zM893.57 474.72 a3.74 3.74 0 1 0 7.48 0 a3.74 3.74 0 1 0 -7.48 0zM884.87 435.19 a8.1 8.1 0 1 0 16.2 0 a8.1 8.1 0 1 0 -16.2 0zM864.97 460.25 a9.34 9.34 0 1 0 18.68 0 a9.34 9.34 0 1 0 -18.68 0z" fill="rgba(41, 83, 158, 0.37)" fill-rule="nonzero"></path>
        <path d="M1042.67 290.31L1042.67 292.17L1052.44 292.17L1052.44 290.31zM1049.14 291.24 a3.3 3.3 0 1 0 6.6 0 a3.3 3.3 0 1 0 -6.6 0zM1040.32 304L1039.61 305.72L1055.7 312.39L1056.41 310.67zM1052.76 311.53 a3.3 3.3 0 1 0 6.6 0 a3.3 3.3 0 1 0 -6.6 0zM1032.91 315.75L1031.59 317.06L1040.88 326.35L1042.2 325.04zM1038.24 325.7 a3.3 3.3 0 1 0 6.6 0 a3.3 3.3 0 1 0 -6.6 0zM1021.56 323.76L1019.84 324.47L1024.64 336.05L1026.36 335.34zM1022.2 335.69 a3.3 3.3 0 1 0 6.6 0 a3.3 3.3 0 1 0 -6.6 0zM1008.02 326.83L1006.15 326.83L1006.15 334.99L1008.02 334.99zM1003.79 334.99 a3.3 3.3 0 1 0 6.6 0 a3.3 3.3 0 1 0 -6.6 0zM994.33 324.47L992.61 323.76L988.35 334.04L990.07 334.76zM985.91 334.4 a3.3 3.3 0 1 0 6.6 0 a3.3 3.3 0 1 0 -6.6 0zM982.58 317.06L981.27 315.75L971.84 325.17L973.16 326.49zM969.2 325.83 a3.3 3.3 0 1 0 6.6 0 a3.3 3.3 0 1 0 -6.6 0zM974.57 305.72L973.85 304L961.25 309.22L961.97 310.94zM958.31 310.08 a3.3 3.3 0 1 0 6.6 0 a3.3 3.3 0 1 0 -6.6 0zM971.5 292.17L971.5 290.31L962.67 290.31L962.67 292.17zM959.37 291.24 a3.3 3.3 0 1 0 6.6 0 a3.3 3.3 0 1 0 -6.6 0zM973.85 278.49L974.57 276.76L961.78 271.47L961.07 273.19zM958.12 272.33 a3.3 3.3 0 1 0 6.6 0 a3.3 3.3 0 1 0 -6.6 0zM981.27 266.74L982.58 265.42L972.99 255.83L971.67 257.14zM969.03 256.48 a3.3 3.3 0 1 0 6.6 0 a3.3 3.3 0 1 0 -6.6 0zM992.61 258.72L994.33 258.01L987.89 242.47L986.17 243.18zM983.73 242.83 a3.3 3.3 0 1 0 6.6 0 a3.3 3.3 0 1 0 -6.6 0zM1006.15 255.66L1008.02 255.66L1008.02 246.58L1006.15 246.58zM1003.79 246.58 a3.3 3.3 0 1 0 6.6 0 a3.3 3.3 0 1 0 -6.6 0zM1019.84 258.01L1021.56 258.72L1027.17 245.19L1025.45 244.47zM1023.01 244.83 a3.3 3.3 0 1 0 6.6 0 a3.3 3.3 0 1 0 -6.6 0zM1031.59 265.42L1032.91 266.74L1040.8 258.85L1039.48 257.53zM1036.84 258.19 a3.3 3.3 0 1 0 6.6 0 a3.3 3.3 0 1 0 -6.6 0zM1039.61 276.76L1040.32 278.49L1053.24 273.13L1052.53 271.41zM1049.59 272.27 a3.3 3.3 0 1 0 6.6 0 a3.3 3.3 0 1 0 -6.6 0zM971.49 291.24 a35.6 35.6 0 1 0 71.2 0 a35.6 35.6 0 1 0 -71.2 0z" fill="rgba(51, 104, 198, 0.37)"></path>
        <path d="M1031.98 316.69 A34.5968 34.5968 0 0 1 972.62 300.15M972.62 300.15 A71.1936 71.1936 0 0 0 1031.98 316.69" fill="rgba(41, 83, 158, 0.37)" fill-rule="nonzero"></path>
        <path d="M1002.39 287.26 a7.12 7.12 0 1 0 14.24 0 a7.12 7.12 0 1 0 -14.24 0zM1023.21 314.57 a4.27 4.27 0 1 0 8.54 0 a4.27 4.27 0 1 0 -8.54 0zM977.41 289.76 a7.12 7.12 0 1 0 14.24 0 a7.12 7.12 0 1 0 -14.24 0zM1012.44 268.69 a6.41 6.41 0 1 0 12.82 0 a6.41 6.41 0 1 0 -12.82 0zM1004.39 260.93 a1.42 1.42 0 1 0 2.84 0 a1.42 1.42 0 1 0 -2.84 0zM993.57 319.07 a6.76 6.76 0 1 0 13.52 0 a6.76 6.76 0 1 0 -13.52 0zM1034.89 285.21 a3.56 3.56 0 1 0 7.12 0 a3.56 3.56 0 1 0 -7.12 0zM1022.6 293.48 a1.42 1.42 0 1 0 2.84 0 a1.42 1.42 0 1 0 -2.84 0zM1036.62 303.31 a1.78 1.78 0 1 0 3.56 0 a1.78 1.78 0 1 0 -3.56 0zM996.46 302.61 a2.49 2.49 0 1 0 4.98 0 a2.49 2.49 0 1 0 -4.98 0z" fill="rgba(41, 83, 158, 0.37)" fill-rule="nonzero"></path>
        <path d="M1416.38 486.05L1416.38 487.92L1422.68 487.92L1422.68 486.05zM1419.38 486.98 a3.3 3.3 0 1 0 6.6 0 a3.3 3.3 0 1 0 -6.6 0zM1414.03 499.74L1413.31 501.46L1420.29 504.35L1421 502.63zM1417.35 503.49 a3.3 3.3 0 1 0 6.6 0 a3.3 3.3 0 1 0 -6.6 0zM1406.62 511.49L1405.3 512.8L1413.23 520.74L1414.55 519.42zM1410.59 520.08 a3.3 3.3 0 1 0 6.6 0 a3.3 3.3 0 1 0 -6.6 0zM1395.27 519.5L1393.55 520.22L1398.26 531.59L1399.98 530.88zM1395.82 531.23 a3.3 3.3 0 1 0 6.6 0 a3.3 3.3 0 1 0 -6.6 0zM1381.73 522.57L1379.86 522.57L1379.86 530.1L1381.73 530.1zM1377.49 530.1 a3.3 3.3 0 1 0 6.6 0 a3.3 3.3 0 1 0 -6.6 0zM1368.04 520.22L1366.32 519.5L1364.54 523.8L1366.26 524.51zM1362.1 524.16 a3.3 3.3 0 1 0 6.6 0 a3.3 3.3 0 1 0 -6.6 0zM1356.29 512.8L1354.97 511.49L1349.12 517.34L1350.44 518.66zM1346.48 518 a3.3 3.3 0 1 0 6.6 0 a3.3 3.3 0 1 0 -6.6 0zM1348.28 501.46L1347.56 499.74L1334.93 504.97L1335.65 506.69zM1331.99 505.83 a3.3 3.3 0 1 0 6.6 0 a3.3 3.3 0 1 0 -6.6 0zM1345.21 487.92L1345.21 486.05L1340.37 486.05L1340.37 487.92zM1337.07 486.98 a3.3 3.3 0 1 0 6.6 0 a3.3 3.3 0 1 0 -6.6 0zM1347.56 474.23L1348.28 472.5L1341.56 469.72L1340.85 471.44zM1337.9 470.58 a3.3 3.3 0 1 0 6.6 0 a3.3 3.3 0 1 0 -6.6 0zM1354.97 462.48L1356.29 461.16L1346.31 451.19L1345 452.5zM1342.36 451.84 a3.3 3.3 0 1 0 6.6 0 a3.3 3.3 0 1 0 -6.6 0zM1366.32 454.46L1368.04 453.75L1362.16 439.57L1360.44 440.28zM1358 439.93 a3.3 3.3 0 1 0 6.6 0 a3.3 3.3 0 1 0 -6.6 0zM1379.86 451.4L1381.73 451.4L1381.73 445.78L1379.86 445.78zM1377.49 445.78 a3.3 3.3 0 1 0 6.6 0 a3.3 3.3 0 1 0 -6.6 0zM1393.55 453.75L1395.27 454.46L1398.22 447.36L1396.49 446.65zM1394.06 447 a3.3 3.3 0 1 0 6.6 0 a3.3 3.3 0 1 0 -6.6 0zM1405.3 461.16L1406.62 462.48L1416.9 452.2L1415.58 450.88zM1412.94 451.54 a3.3 3.3 0 1 0 6.6 0 a3.3 3.3 0 1 0 -6.6 0zM1413.31 472.5L1414.03 474.23L1421.55 471.11L1420.83 469.39zM1417.89 470.25 a3.3 3.3 0 1 0 6.6 0 a3.3 3.3 0 1 0 -6.6 0zM1345.19 486.98 a35.6 35.6 0 1 0 71.2 0 a35.6 35.6 0 1 0 -71.2 0z" fill="rgba(51, 104, 198, 0.37)"></path>
        <path d="M1415.41 495.29 A34.5968 34.5968 0 0 1 1356.35 512.86M1356.35 512.86 A71.1936 71.1936 0 0 0 1415.41 495.29" fill="rgba(41, 83, 158, 0.37)" fill-rule="nonzero"></path>
        <path d="M1401.76 467.84 a3.92 3.92 0 1 0 7.84 0 a3.92 3.92 0 1 0 -7.84 0zM1345.42 484.7 a5.7 5.7 0 1 0 11.4 0 a5.7 5.7 0 1 0 -11.4 0zM1369.56 455.09 a2.14 2.14 0 1 0 4.28 0 a2.14 2.14 0 1 0 -4.28 0zM1358.74 498.02 a6.76 6.76 0 1 0 13.52 0 a6.76 6.76 0 1 0 -13.52 0zM1380.15 460.27 a4.98 4.98 0 1 0 9.96 0 a4.98 4.98 0 1 0 -9.96 0zM1361.54 475.25 a4.63 4.63 0 1 0 9.26 0 a4.63 4.63 0 1 0 -9.26 0zM1378.75 492.45 a4.27 4.27 0 1 0 8.54 0 a4.27 4.27 0 1 0 -8.54 0zM1400.9 480.94 a2.14 2.14 0 1 0 4.28 0 a2.14 2.14 0 1 0 -4.28 0zM1381.27 477.92 a3.2 3.2 0 1 0 6.4 0 a3.2 3.2 0 1 0 -6.4 0zM1381.83 510.68 a7.12 7.12 0 1 0 14.24 0 a7.12 7.12 0 1 0 -14.24 0z" fill="rgba(41, 83, 158, 0.37)" fill-rule="nonzero"></path>
        <path d="M1257.57 146.91L1257.57 150.17L1274.99 150.17L1274.99 146.91zM1269.21 148.54 a5.78 5.78 0 1 0 11.56 0 a5.78 5.78 0 1 0 -11.56 0zM1253.45 170.87L1252.21 173.88L1268.49 180.62L1269.73 177.61zM1263.33 179.12 a5.78 5.78 0 1 0 11.56 0 a5.78 5.78 0 1 0 -11.56 0zM1240.48 191.42L1238.18 193.73L1251.26 206.81L1253.57 204.51zM1246.63 205.66 a5.78 5.78 0 1 0 11.56 0 a5.78 5.78 0 1 0 -11.56 0zM1220.64 205.45L1217.62 206.7L1229.15 234.54L1232.17 233.29zM1224.88 233.91 a5.78 5.78 0 1 0 11.56 0 a5.78 5.78 0 1 0 -11.56 0zM1196.93 210.82L1193.67 210.82L1193.67 236.69L1196.93 236.69zM1189.52 236.69 a5.78 5.78 0 1 0 11.56 0 a5.78 5.78 0 1 0 -11.56 0zM1172.97 206.7L1169.96 205.45L1159.02 231.86L1162.04 233.1zM1154.75 232.48 a5.78 5.78 0 1 0 11.56 0 a5.78 5.78 0 1 0 -11.56 0zM1152.42 193.73L1150.11 191.42L1133.88 207.66L1136.18 209.97zM1129.25 208.81 a5.78 5.78 0 1 0 11.56 0 a5.78 5.78 0 1 0 -11.56 0zM1138.39 173.88L1137.14 170.87L1127.29 174.95L1128.54 177.96zM1122.14 176.45 a5.78 5.78 0 1 0 11.56 0 a5.78 5.78 0 1 0 -11.56 0zM1133.02 150.17L1133.02 146.91L1112.18 146.91L1112.18 150.17zM1106.4 148.54 a5.78 5.78 0 1 0 11.56 0 a5.78 5.78 0 1 0 -11.56 0zM1137.14 126.22L1138.39 123.21L1118.83 115.1L1117.58 118.12zM1112.43 116.61 a5.78 5.78 0 1 0 11.56 0 a5.78 5.78 0 1 0 -11.56 0zM1150.11 105.66L1152.42 103.36L1137.22 88.16L1134.92 90.47zM1130.29 89.31 a5.78 5.78 0 1 0 11.56 0 a5.78 5.78 0 1 0 -11.56 0zM1169.96 91.63L1172.97 90.39L1165.2 71.61L1162.18 72.86zM1157.91 72.24 a5.78 5.78 0 1 0 11.56 0 a5.78 5.78 0 1 0 -11.56 0zM1193.67 86.27L1196.93 86.27L1196.93 61.11L1193.67 61.11zM1189.52 61.11 a5.78 5.78 0 1 0 11.56 0 a5.78 5.78 0 1 0 -11.56 0zM1217.62 90.39L1220.64 91.63L1227.37 75.37L1224.36 74.12zM1220.09 74.74 a5.78 5.78 0 1 0 11.56 0 a5.78 5.78 0 1 0 -11.56 0zM1238.18 103.36L1240.48 105.66L1261 85.14L1258.7 82.84zM1254.07 83.99 a5.78 5.78 0 1 0 11.56 0 a5.78 5.78 0 1 0 -11.56 0zM1252.21 123.21L1253.45 126.22L1270.83 119.02L1269.58 116.01zM1264.43 117.51 a5.78 5.78 0 1 0 11.56 0 a5.78 5.78 0 1 0 -11.56 0zM1133.01 148.54 a62.29 62.29 0 1 0 124.58 0 a62.29 62.29 0 1 0 -124.58 0z" fill="rgba(51, 104, 198, 0.37)"></path>
        <path d="M1253.34 171.15 A61.294399999999996 61.294399999999996 0 0 1 1146.78 187.61M1146.78 187.61 A124.58879999999999 124.58879999999999 0 0 0 1253.34 171.15" fill="rgba(41, 83, 158, 0.37)" fill-rule="nonzero"></path>
        <path d="M1169.54 118.58 a12.46 12.46 0 1 0 24.92 0 a12.46 12.46 0 1 0 -24.92 0zM1151.24 189.55 a5.61 5.61 0 1 0 11.22 0 a5.61 5.61 0 1 0 -11.22 0zM1207.18 152.47 a12.46 12.46 0 1 0 24.92 0 a12.46 12.46 0 1 0 -24.92 0zM1187.11 169.27 a6.23 6.23 0 1 0 12.46 0 a6.23 6.23 0 1 0 -12.46 0zM1198.88 190.87 a5.61 5.61 0 1 0 11.22 0 a5.61 5.61 0 1 0 -11.22 0zM1244.87 120.17 a2.49 2.49 0 1 0 4.98 0 a2.49 2.49 0 1 0 -4.98 0zM1174.65 197.15 a6.23 6.23 0 1 0 12.46 0 a6.23 6.23 0 1 0 -12.46 0zM1135.16 163.5 a8.1 8.1 0 1 0 16.2 0 a8.1 8.1 0 1 0 -16.2 0zM1239.34 184.13 a3.11 3.11 0 1 0 6.22 0 a3.11 3.11 0 1 0 -6.22 0zM1206.38 112.72 a4.36 4.36 0 1 0 8.72 0 a4.36 4.36 0 1 0 -8.72 0z" fill="rgba(41, 83, 158, 0.37)" fill-rule="nonzero"></path>
        <path d="M593.44 135.76L593.44 139.48L628.19 139.48L628.19 135.76zM621.59 137.62 a6.6 6.6 0 1 0 13.2 0 a6.6 6.6 0 1 0 -13.2 0zM588.74 163.13L587.31 166.58L617.52 179.09L618.95 175.65zM611.64 177.37 a6.6 6.6 0 1 0 13.2 0 a6.6 6.6 0 1 0 -13.2 0zM573.92 186.63L571.28 189.26L591.77 209.75L594.4 207.11zM586.48 208.43 a6.6 6.6 0 1 0 13.2 0 a6.6 6.6 0 1 0 -13.2 0zM551.23 202.66L547.79 204.08L556.74 225.7L560.19 224.28zM551.86 224.99 a6.6 6.6 0 1 0 13.2 0 a6.6 6.6 0 1 0 -13.2 0zM524.14 208.79L520.41 208.79L520.41 239.76L524.14 239.76zM515.67 239.76 a6.6 6.6 0 1 0 13.2 0 a6.6 6.6 0 1 0 -13.2 0zM496.76 204.08L493.32 202.66L489.71 211.37L493.15 212.8zM484.83 212.08 a6.6 6.6 0 1 0 13.2 0 a6.6 6.6 0 1 0 -13.2 0zM473.27 189.26L470.63 186.63L451.12 206.13L453.76 208.77zM445.84 207.45 a6.6 6.6 0 1 0 13.2 0 a6.6 6.6 0 1 0 -13.2 0zM457.24 166.58L455.81 163.13L438.19 170.43L439.62 173.87zM432.3 172.15 a6.6 6.6 0 1 0 13.2 0 a6.6 6.6 0 1 0 -13.2 0zM451.11 139.48L451.11 135.76L436.78 135.76L436.78 139.48zM430.18 137.62 a6.6 6.6 0 1 0 13.2 0 a6.6 6.6 0 1 0 -13.2 0zM455.81 112.11L457.24 108.66L442.4 102.52L440.97 105.96zM435.09 104.24 a6.6 6.6 0 1 0 13.2 0 a6.6 6.6 0 1 0 -13.2 0zM470.63 88.61L473.27 85.98L466.3 79.01L463.67 81.65zM458.39 80.33 a6.6 6.6 0 1 0 13.2 0 a6.6 6.6 0 1 0 -13.2 0zM493.32 72.58L496.76 71.15L491.62 58.74L488.17 60.16zM483.3 59.45 a6.6 6.6 0 1 0 13.2 0 a6.6 6.6 0 1 0 -13.2 0zM520.41 66.45L524.14 66.45L524.14 43.5L520.41 43.5zM515.67 43.5 a6.6 6.6 0 1 0 13.2 0 a6.6 6.6 0 1 0 -13.2 0zM547.79 71.15L551.23 72.58L563.88 42.04L560.44 40.61zM555.56 41.32 a6.6 6.6 0 1 0 13.2 0 a6.6 6.6 0 1 0 -13.2 0zM571.28 85.98L573.92 88.61L582.06 80.47L579.43 77.83zM574.14 79.15 a6.6 6.6 0 1 0 13.2 0 a6.6 6.6 0 1 0 -13.2 0zM587.31 108.66L588.74 112.11L605.64 105.11L604.21 101.66zM598.32 103.38 a6.6 6.6 0 1 0 13.2 0 a6.6 6.6 0 1 0 -13.2 0zM451.08 137.62 a71.19 71.19 0 1 0 142.38 0 a71.19 71.19 0 1 0 -142.38 0z" fill="rgba(51, 104, 198, 0.37)"></path>
        <path d="M453.9 117.77 A70.1936 70.1936 0 0 1 573.55 88.23M573.55 88.23 A142.3872 142.3872 0 0 0 453.9 117.77" fill="rgba(41, 83, 158, 0.37)" fill-rule="nonzero"></path>
        <path d="M525.25 189.45 a14.24 14.24 0 1 0 28.48 0 a14.24 14.24 0 1 0 -28.48 0zM505.75 160.53 a9.26 9.26 0 1 0 18.52 0 a9.26 9.26 0 1 0 -18.52 0zM454.86 156.95 a11.39 11.39 0 1 0 22.78 0 a11.39 11.39 0 1 0 -22.78 0zM501.7 104.27 a14.24 14.24 0 1 0 28.48 0 a14.24 14.24 0 1 0 -28.48 0zM557.57 137.79 a14.24 14.24 0 1 0 28.48 0 a14.24 14.24 0 1 0 -28.48 0zM487.57 194.8 a7.12 7.12 0 1 0 14.24 0 a7.12 7.12 0 1 0 -14.24 0zM531.37 78.22 a3.56 3.56 0 1 0 7.12 0 a3.56 3.56 0 1 0 -7.12 0zM455.71 115.14 a12.81 12.81 0 1 0 25.62 0 a12.81 12.81 0 1 0 -25.62 0zM548.55 93.01 a7.12 7.12 0 1 0 14.24 0 a7.12 7.12 0 1 0 -14.24 0zM566.98 179.31 a3.56 3.56 0 1 0 7.12 0 a3.56 3.56 0 1 0 -7.12 0z" fill="rgba(41, 83, 158, 0.37)" fill-rule="nonzero"></path>
        <path d="M1228.79 441.65L1228.79 443.51L1238.07 443.51L1238.07 441.65zM1234.77 442.58 a3.3 3.3 0 1 0 6.6 0 a3.3 3.3 0 1 0 -6.6 0zM1226.43 455.34L1225.72 457.06L1236.08 461.35L1236.79 459.63zM1233.13 460.49 a3.3 3.3 0 1 0 6.6 0 a3.3 3.3 0 1 0 -6.6 0zM1219.02 467.08L1217.7 468.4L1223.98 474.67L1225.29 473.36zM1221.33 474.01 a3.3 3.3 0 1 0 6.6 0 a3.3 3.3 0 1 0 -6.6 0zM1207.68 475.1L1205.96 475.81L1207.73 480.09L1209.45 479.38zM1205.29 479.73 a3.3 3.3 0 1 0 6.6 0 a3.3 3.3 0 1 0 -6.6 0zM1194.13 478.16L1192.27 478.16L1192.27 489.86L1194.13 489.86zM1189.9 489.86 a3.3 3.3 0 1 0 6.6 0 a3.3 3.3 0 1 0 -6.6 0zM1180.44 475.81L1178.72 475.1L1172.49 490.15L1174.21 490.86zM1170.05 490.51 a3.3 3.3 0 1 0 6.6 0 a3.3 3.3 0 1 0 -6.6 0zM1168.7 468.4L1167.38 467.08L1157.19 477.27L1158.51 478.59zM1154.55 477.93 a3.3 3.3 0 1 0 6.6 0 a3.3 3.3 0 1 0 -6.6 0zM1160.68 457.06L1159.97 455.34L1145.78 461.21L1146.49 462.94zM1142.83 462.08 a3.3 3.3 0 1 0 6.6 0 a3.3 3.3 0 1 0 -6.6 0zM1157.62 443.51L1157.62 441.65L1145.59 441.65L1145.59 443.51zM1142.29 442.58 a3.3 3.3 0 1 0 6.6 0 a3.3 3.3 0 1 0 -6.6 0zM1159.97 429.82L1160.68 428.1L1146.19 422.1L1145.47 423.82zM1142.53 422.96 a3.3 3.3 0 1 0 6.6 0 a3.3 3.3 0 1 0 -6.6 0zM1167.38 418.08L1168.7 416.76L1157.95 406.01L1156.63 407.33zM1153.99 406.67 a3.3 3.3 0 1 0 6.6 0 a3.3 3.3 0 1 0 -6.6 0zM1178.72 410.06L1180.44 409.35L1176.67 400.24L1174.95 400.95zM1172.51 400.59 a3.3 3.3 0 1 0 6.6 0 a3.3 3.3 0 1 0 -6.6 0zM1192.27 407L1194.13 407L1194.13 397.57L1192.27 397.57zM1189.9 397.57 a3.3 3.3 0 1 0 6.6 0 a3.3 3.3 0 1 0 -6.6 0zM1205.96 409.35L1207.68 410.06L1212.93 397.38L1211.21 396.66zM1208.77 397.02 a3.3 3.3 0 1 0 6.6 0 a3.3 3.3 0 1 0 -6.6 0zM1217.7 416.76L1219.02 418.08L1224.84 412.26L1223.52 410.94zM1220.88 411.6 a3.3 3.3 0 1 0 6.6 0 a3.3 3.3 0 1 0 -6.6 0zM1225.72 428.1L1226.43 429.82L1242.6 423.13L1241.89 421.4zM1238.94 422.27 a3.3 3.3 0 1 0 6.6 0 a3.3 3.3 0 1 0 -6.6 0zM1157.6 442.58 a35.6 35.6 0 1 0 71.2 0 a35.6 35.6 0 1 0 -71.2 0z" fill="rgba(51, 104, 198, 0.37)"></path>
        <path d="M1176.96 410.9 A34.5968 34.5968 0 0 1 1228.76 444.28M1228.76 444.28 A71.1936 71.1936 0 0 0 1176.96 410.9" fill="rgba(41, 83, 158, 0.37)" fill-rule="nonzero"></path>
        <path d="M1189.95 451.41 a7.12 7.12 0 1 0 14.24 0 a7.12 7.12 0 1 0 -14.24 0zM1213.68 437.6 a7.12 7.12 0 1 0 14.24 0 a7.12 7.12 0 1 0 -14.24 0zM1177.77 472.52 a2.85 2.85 0 1 0 5.7 0 a2.85 2.85 0 1 0 -5.7 0zM1203.59 472.22 a2.85 2.85 0 1 0 5.7 0 a2.85 2.85 0 1 0 -5.7 0zM1164.01 426.15 a7.12 7.12 0 1 0 14.24 0 a7.12 7.12 0 1 0 -14.24 0zM1201.82 425.18 a4.63 4.63 0 1 0 9.26 0 a4.63 4.63 0 1 0 -9.26 0zM1208.62 461.28 a1.42 1.42 0 1 0 2.84 0 a1.42 1.42 0 1 0 -2.84 0zM1189.41 409.77 a2.49 2.49 0 1 0 4.98 0 a2.49 2.49 0 1 0 -4.98 0zM1165.41 449.6 a7.12 7.12 0 1 0 14.24 0 a7.12 7.12 0 1 0 -14.24 0zM1185.45 424.43 a1.42 1.42 0 1 0 2.84 0 a1.42 1.42 0 1 0 -2.84 0z" fill="rgba(41, 83, 158, 0.37)" fill-rule="nonzero"></path>
        <path d="M572.53 485.84L572.53 488.17L594.24 488.17L594.24 485.84zM590.11 487.01 a4.13 4.13 0 1 0 8.26 0 a4.13 4.13 0 1 0 -8.26 0zM569.58 502.95L568.69 505.11L588.73 513.41L589.62 511.25zM585.05 512.33 a4.13 4.13 0 1 0 8.26 0 a4.13 4.13 0 1 0 -8.26 0zM560.32 517.64L558.67 519.28L570.09 530.7L571.73 529.05zM566.78 529.87 a4.13 4.13 0 1 0 8.26 0 a4.13 4.13 0 1 0 -8.26 0zM546.14 527.66L543.99 528.55L550.31 543.81L552.46 542.92zM547.26 543.37 a4.13 4.13 0 1 0 8.26 0 a4.13 4.13 0 1 0 -8.26 0zM529.21 531.49L526.88 531.49L526.88 552.76L529.21 552.76zM523.91 552.76 a4.13 4.13 0 1 0 8.26 0 a4.13 4.13 0 1 0 -8.26 0zM512.1 528.55L509.95 527.66L502.69 545.16L504.85 546.06zM499.64 545.61 a4.13 4.13 0 1 0 8.26 0 a4.13 4.13 0 1 0 -8.26 0zM497.42 519.28L495.77 517.64L482.32 531.09L483.97 532.73zM479.01 531.91 a4.13 4.13 0 1 0 8.26 0 a4.13 4.13 0 1 0 -8.26 0zM487.4 505.11L486.5 502.95L473.36 508.4L474.25 510.55zM469.67 509.48 a4.13 4.13 0 1 0 8.26 0 a4.13 4.13 0 1 0 -8.26 0zM483.56 488.17L483.56 485.84L470.67 485.84L470.67 488.17zM466.54 487.01 a4.13 4.13 0 1 0 8.26 0 a4.13 4.13 0 1 0 -8.26 0zM486.5 471.06L487.4 468.91L477.18 464.68L476.29 466.83zM472.6 465.75 a4.13 4.13 0 1 0 8.26 0 a4.13 4.13 0 1 0 -8.26 0zM495.77 456.38L497.42 454.73L487.32 444.63L485.67 446.28zM482.36 445.46 a4.13 4.13 0 1 0 8.26 0 a4.13 4.13 0 1 0 -8.26 0zM509.95 446.36L512.1 445.47L509.77 439.84L507.62 440.73zM504.56 440.29 a4.13 4.13 0 1 0 8.26 0 a4.13 4.13 0 1 0 -8.26 0zM526.88 442.53L529.21 442.53L529.21 430.24L526.88 430.24zM523.91 430.24 a4.13 4.13 0 1 0 8.26 0 a4.13 4.13 0 1 0 -8.26 0zM543.99 445.47L546.14 446.36L549.15 439.09L547 438.2zM543.95 438.64 a4.13 4.13 0 1 0 8.26 0 a4.13 4.13 0 1 0 -8.26 0zM558.67 454.73L560.32 456.38L566.28 450.42L564.63 448.77zM561.33 449.59 a4.13 4.13 0 1 0 8.26 0 a4.13 4.13 0 1 0 -8.26 0zM568.69 468.91L569.58 471.06L582.6 465.67L581.71 463.52zM578.03 464.59 a4.13 4.13 0 1 0 8.26 0 a4.13 4.13 0 1 0 -8.26 0zM483.54 487.01 a44.5 44.5 0 1 0 89 0 a44.5 44.5 0 1 0 -89 0z" fill="rgba(51, 104, 198, 0.37)"></path>
        <path d="M493.33 459.17 A43.496 43.496 0 0 1 569.47 470.77M569.47 470.77 A88.992 88.992 0 0 0 493.33 459.17" fill="rgba(41, 83, 158, 0.37)" fill-rule="nonzero"></path>
        <path d="M548.62 511.64 a7.12 7.12 0 1 0 14.24 0 a7.12 7.12 0 1 0 -14.24 0zM513.57 509.33 a8.9 8.9 0 1 0 17.8 0 a8.9 8.9 0 1 0 -17.8 0zM526.06 529.02 a2.22 2.22 0 1 0 4.44 0 a2.22 2.22 0 1 0 -4.44 0zM500.45 470.54 a8.9 8.9 0 1 0 17.8 0 a8.9 8.9 0 1 0 -17.8 0zM527.55 471.83 a4 4 0 1 0 8 0 a4 4 0 1 0 -8 0zM540.32 461.29 a2.22 2.22 0 1 0 4.44 0 a2.22 2.22 0 1 0 -4.44 0zM549.91 479.44 a8.9 8.9 0 1 0 17.8 0 a8.9 8.9 0 1 0 -17.8 0zM534.16 486.98 a3.11 3.11 0 1 0 6.22 0 a3.11 3.11 0 1 0 -6.22 0zM517.57 453.41 a1.78 1.78 0 1 0 3.56 0 a1.78 1.78 0 1 0 -3.56 0zM484.96 497.44 a4.89 4.89 0 1 0 9.78 0 a4.89 4.89 0 1 0 -9.78 0z" fill="rgba(41, 83, 158, 0.37)" fill-rule="nonzero"></path>
        <path d="M895.91 90.77L895.91 93.57L909.38 93.57L909.38 90.77zM904.43 92.17 a4.95 4.95 0 1 0 9.9 0 a4.95 4.95 0 1 0 -9.9 0zM892.39 111.3L891.32 113.89L902.95 118.7L904.02 116.12zM898.53 117.41 a4.95 4.95 0 1 0 9.9 0 a4.95 4.95 0 1 0 -9.9 0zM881.27 128.92L879.29 130.9L896.3 147.91L898.27 145.93zM892.34 146.92 a4.95 4.95 0 1 0 9.9 0 a4.95 4.95 0 1 0 -9.9 0zM864.26 140.95L861.67 142.02L864.41 148.62L866.99 147.55zM860.75 148.09 a4.95 4.95 0 1 0 9.9 0 a4.95 4.95 0 1 0 -9.9 0zM843.94 145.55L841.14 145.55L841.14 159.71L843.94 159.71zM837.59 159.71 a4.95 4.95 0 1 0 9.9 0 a4.95 4.95 0 1 0 -9.9 0zM823.4 142.02L820.82 140.95L813.28 159.16L815.86 160.23zM809.62 159.69 a4.95 4.95 0 1 0 9.9 0 a4.95 4.95 0 1 0 -9.9 0zM805.78 130.9L803.81 128.92L789.8 142.93L791.77 144.91zM785.84 143.92 a4.95 4.95 0 1 0 9.9 0 a4.95 4.95 0 1 0 -9.9 0zM793.76 113.89L792.69 111.3L777.14 117.74L778.21 120.33zM772.72 119.04 a4.95 4.95 0 1 0 9.9 0 a4.95 4.95 0 1 0 -9.9 0zM789.16 93.57L789.16 90.77L769.96 90.77L769.96 93.57zM765.01 92.17 a4.95 4.95 0 1 0 9.9 0 a4.95 4.95 0 1 0 -9.9 0zM792.69 73.03L793.76 70.45L780.59 65L779.52 67.58zM775.11 66.29 a4.95 4.95 0 1 0 9.9 0 a4.95 4.95 0 1 0 -9.9 0zM803.81 55.41L805.78 53.44L793.05 40.7L791.07 42.68zM787.11 41.69 a4.95 4.95 0 1 0 9.9 0 a4.95 4.95 0 1 0 -9.9 0zM820.82 43.39L823.4 42.32L814.94 21.89L812.36 22.96zM808.7 22.43 a4.95 4.95 0 1 0 9.9 0 a4.95 4.95 0 1 0 -9.9 0zM841.14 38.79L843.94 38.79L843.94 32L841.14 32zM837.59 32 a4.95 4.95 0 1 0 9.9 0 a4.95 4.95 0 1 0 -9.9 0zM861.67 42.32L864.26 43.39L867.08 36.57L864.5 35.5zM860.84 36.04 a4.95 4.95 0 1 0 9.9 0 a4.95 4.95 0 1 0 -9.9 0zM879.29 53.44L881.27 55.41L898.44 38.24L896.47 36.26zM892.51 37.25 a4.95 4.95 0 1 0 9.9 0 a4.95 4.95 0 1 0 -9.9 0zM891.32 70.45L892.39 73.03L910.41 65.57L909.34 62.99zM904.93 64.28 a4.95 4.95 0 1 0 9.9 0 a4.95 4.95 0 1 0 -9.9 0zM789.14 92.17 a53.4 53.4 0 1 0 106.8 0 a53.4 53.4 0 1 0 -106.8 0z" fill="rgba(51, 104, 198, 0.37)"></path>
        <path d="M802.13 57.27 A52.3952 52.3952 0 0 1 892.93 74.52M892.93 74.52 A106.7904 106.7904 0 0 0 802.13 57.27" fill="rgba(41, 83, 158, 0.37)" fill-rule="nonzero"></path>
        <path d="M789.66 98.25 a3.2 3.2 0 1 0 6.4 0 a3.2 3.2 0 1 0 -6.4 0zM858.61 67.51 a10.68 10.68 0 1 0 21.36 0 a10.68 10.68 0 1 0 -21.36 0zM868.32 94.37 a5.87 5.87 0 1 0 11.74 0 a5.87 5.87 0 1 0 -11.74 0zM800.32 121.67 a8.54 8.54 0 1 0 17.08 0 a8.54 8.54 0 1 0 -17.08 0zM838.2 106.93 a10.68 10.68 0 1 0 21.36 0 a10.68 10.68 0 1 0 -21.36 0zM843.37 81.62 a3.74 3.74 0 1 0 7.48 0 a3.74 3.74 0 1 0 -7.48 0zM838.35 135.97 a7.48 7.48 0 1 0 14.96 0 a7.48 7.48 0 1 0 -14.96 0zM883.96 109.45 a2.14 2.14 0 1 0 4.28 0 a2.14 2.14 0 1 0 -4.28 0zM869.3 123.98 a5.34 5.34 0 1 0 10.68 0 a5.34 5.34 0 1 0 -10.68 0zM810 63.94 a10.68 10.68 0 1 0 21.36 0 a10.68 10.68 0 1 0 -21.36 0z" fill="rgba(41, 83, 158, 0.37)" fill-rule="nonzero"></path>
    </g>
    <defs>
        <mask id="SvgjsMask1000">
            <rect width="1440" height="560" fill="#ffffff"></rect>
        </mask>
    </defs>
</svg>